<svg xmlns="http://www.w3.org/2000/svg" viewBox="0 0 200 200" width="200" height="200">
  <!-- Spiral with thin lines and light colors -->
  <path d="M100,100
           m0,-90
           a90,90 0 1,1 0,180
           a70,70 0 1,1 0,-140
           a50,50 0 1,1 0,100
           a30,30 0 1,1 0,-60
           a10,10 0 1,1 0,20"
        fill="none" stroke="lightblue" stroke-width="1"/>
  
  <path d="M100,100
           m0,-70
           a70,70 0 1,1 0,140
           a50,50 0 1,1 0,-100
           a30,30 0 1,1 0,60
           a10,10 0 1,1 0,-20"
        fill="none" stroke="lightgreen" stroke-width="1"/>
        
  <path d="M100,100
           m0,-50
           a50,50 0 1,1 0,100
           a30,30 0 1,1 0,-60
           a10,10 0 1,1 0,20"
        fill="none" stroke="lightcoral" stroke-width="1"/>
        
  <path d="M100,100
           m0,-30
           a30,30 0 1,1 0,60
           a10,10 0 1,1 0,-20"
        fill="none" stroke="lightsalmon" stroke-width="1"/>
  
  <path d="M100,100
           m0,-10
           a10,10 0 1,1 0,20"
        fill="none" stroke="lightpink" stroke-width="1"/>
</svg>
